<svg xmlns="http://www.w3.org/2000/svg" width="512" height="512" viewBox="0 0 52 52">
  <defs>
    <linearGradient id="g1" x1="0%" y1="0%" x2="100%" y2="100%">
      <stop offset="0%" stop-color="#818cf8" />
      <stop offset="50%" stop-color="#6366f1" />
      <stop offset="100%" stop-color="#4f46e5" />
    </linearGradient>
    <linearGradient id="g2" x1="0%" y1="0%" x2="100%" y2="100%">
      <stop offset="0%" stop-color="#c7d2fe" stop-opacity="0.9" />
      <stop offset="100%" stop-color="#ffffff" stop-opacity="0.95" />
    </linearGradient>
  </defs>
  <rect width="52" height="52" rx="12" ry="12" fill="url(#g1)" />
  <circle cx="26" cy="26" r="7" fill="url(#g2)" />
  <line x1="26" y1="19" x2="26" y2="11" stroke="white" stroke-opacity="0.7" stroke-width="2" stroke-linecap="round" />
  <line x1="26" y1="33" x2="26" y2="41" stroke="white" stroke-opacity="0.7" stroke-width="2" stroke-linecap="round" />
  <line x1="19" y1="26" x2="11" y2="26" stroke="white" stroke-opacity="0.7" stroke-width="2" stroke-linecap="round" />
  <line x1="33" y1="26" x2="41" y2="26" stroke="white" stroke-opacity="0.7" stroke-width="2" stroke-linecap="round" />
  <line x1="21.05" y1="21.05" x2="15" y2="15" stroke="white" stroke-opacity="0.4" stroke-width="1.5" stroke-linecap="round" />
  <line x1="30.95" y1="21.05" x2="37" y2="15" stroke="white" stroke-opacity="0.4" stroke-width="1.5" stroke-linecap="round" />
  <line x1="21.05" y1="30.95" x2="15" y2="37" stroke="white" stroke-opacity="0.4" stroke-width="1.5" stroke-linecap="round" />
  <line x1="30.95" y1="30.95" x2="37" y2="37" stroke="white" stroke-opacity="0.4" stroke-width="1.5" stroke-linecap="round" />
  <circle cx="26" cy="10" r="3.5" fill="white" fill-opacity="0.9" />
  <circle cx="26" cy="42" r="3.5" fill="white" fill-opacity="0.9" />
  <circle cx="10" cy="26" r="3.5" fill="white" fill-opacity="0.9" />
  <circle cx="42" cy="26" r="3.5" fill="white" fill-opacity="0.9" />
  <circle cx="14" cy="14" r="2.5" fill="white" fill-opacity="0.6" />
  <circle cx="38" cy="14" r="2.5" fill="white" fill-opacity="0.6" />
  <circle cx="14" cy="38" r="2.5" fill="white" fill-opacity="0.6" />
  <circle cx="38" cy="38" r="2.5" fill="white" fill-opacity="0.6" />
</svg>
